<?xml version="1.0" encoding="UTF-8" standalone="no"?>
<!-- Created with Inkscape (http://www.inkscape.org/) -->

<svg
   xmlns:dc="http://purl.org/dc/elements/1.1/"
   xmlns:cc="http://creativecommons.org/ns#"
   xmlns:rdf="http://www.w3.org/1999/02/22-rdf-syntax-ns#"
   xmlns:svg="http://www.w3.org/2000/svg"
   xmlns="http://www.w3.org/2000/svg"
   xmlns:sodipodi="http://sodipodi.sourceforge.net/DTD/sodipodi-0.dtd"
   xmlns:inkscape="http://www.inkscape.org/namespaces/inkscape"
   id="svg2"
   version="1.1"
   inkscape:version="0.91 r13725"
   xml:space="preserve"
   width="580"
   height="580"
   viewBox="0 0 580 580"
   sodipodi:docname="logo.svg"><metadata
     id="metadata8"><rdf:RDF><cc:Work
         rdf:about=""><dc:format>image/svg+xml</dc:format><dc:type
           rdf:resource="http://purl.org/dc/dcmitype/StillImage" /><dc:title></dc:title></cc:Work></rdf:RDF></metadata><defs
     id="defs6" /><sodipodi:namedview
     pagecolor="#ffffff"
     bordercolor="#666666"
     borderopacity="1"
     objecttolerance="10"
     gridtolerance="10"
     guidetolerance="10"
     inkscape:pageopacity="0"
     inkscape:pageshadow="2"
     inkscape:window-width="2560"
     inkscape:window-height="1440"
     id="namedview4"
     showgrid="false"
     inkscape:zoom="0.40689655"
     inkscape:cx="-334.23729"
     inkscape:cy="314.57627"
     inkscape:window-x="0"
     inkscape:window-y="0"
     inkscape:window-maximized="0"
     inkscape:current-layer="g10" /><g
     id="g10"
     inkscape:groupmode="layer"
     inkscape:label="ink_ext_XXXXXX"
     transform="matrix(1.25,0,0,-1.25,0,580)"><g
       id="g12"
       transform="scale(0.1,0.1)"><path
         d="M 2320,0.0117188 C 1038.7,0.0117188 0,1038.7 0,2320.01 0,3601.3 1038.7,4640 2320,4640 3601.3,4640 4640,3601.3 4640,2320.01 4640,1038.7 3601.3,0.0117188 2320,0.0117188"
         style="fill:#ef3269;fill-opacity:1;fill-rule:nonzero;stroke:none"
         id="path14"
         inkscape:connector-curvature="0" /><path
         d="m 1199.21,3794.69 52.79,0 46.4,-151.67 50.24,152.31 42.24,0 50.23,-152.31 46.4,151.67 51.51,0 -76.47,-225.59 -42.88,0 -50.55,146.55 -50.56,-146.55 -42.88,0 -76.47,225.59"
         style="fill:#ffffff;fill-opacity:1;fill-rule:nonzero;stroke:none"
         id="path16"
         inkscape:connector-curvature="0" /><path
         d="m 1569.44,3794.69 168.96,0 0,-43.84 -120,0 0,-45.44 105.59,0 0,-43.83 -105.59,0 0,-47.04 121.59,0 0,-43.84 -170.55,0 0,223.99"
         style="fill:#ffffff;fill-opacity:1;fill-rule:nonzero;stroke:none"
         id="path18"
         inkscape:connector-curvature="0" /><path
         d="m 1777.44,3794.69 49.28,0 0,-179.19 111.67,0 0,-44.8 -160.95,0 0,223.99"
         style="fill:#ffffff;fill-opacity:1;fill-rule:nonzero;stroke:none"
         id="path20"
         inkscape:connector-curvature="0" /><path
         d="m 1946.73,3682.05 0,0.65 c 0,63.67 47.99,115.82 116.79,115.82 42.23,0 67.52,-14.07 88.31,-34.55 l -31.36,-36.16 c -17.28,15.68 -34.87,25.28 -57.28,25.28 -37.75,0 -64.95,-31.36 -64.95,-69.75 l 0,-0.64 c 0,-38.4 26.55,-70.4 64.95,-70.4 25.61,0 41.28,10.24 58.88,26.24 l 31.36,-31.68 c -23.04,-24.64 -48.64,-39.99 -91.84,-39.99 -65.91,0 -114.86,50.87 -114.86,115.18"
         style="fill:#ffffff;fill-opacity:1;fill-rule:nonzero;stroke:none"
         id="path22"
         inkscape:connector-curvature="0" /><path
         d="m 2356.94,3682.05 0,0.65 c 0,38.39 -28.15,70.39 -67.83,70.39 -39.68,0 -67.2,-31.36 -67.2,-69.75 l 0,-0.64 c 0,-38.4 28.16,-70.4 67.84,-70.4 39.67,0 67.19,31.36 67.19,69.75 z m -186.54,0 0,0.65 c 0,63.67 50.23,115.82 119.35,115.82 69.12,0 118.71,-51.51 118.71,-115.18 l 0,-0.64 c 0,-63.68 -50.24,-115.83 -119.35,-115.83 -69.12,0 -118.71,51.51 -118.71,115.18"
         style="fill:#ffffff;fill-opacity:1;fill-rule:nonzero;stroke:none"
         id="path24"
         inkscape:connector-curvature="0" /><path
         d="m 2446.23,3794.69 53.12,0 58.87,-94.71 58.88,94.71 53.11,0 0,-223.99 -48.95,0 0,146.23 -63.04,-95.67 -1.28,0 -62.39,94.71 0,-145.27 -48.32,0 0,223.99"
         style="fill:#ffffff;fill-opacity:1;fill-rule:nonzero;stroke:none"
         id="path26"
         inkscape:connector-curvature="0" /><path
         d="m 2717.91,3794.69 168.96,0 0,-43.84 -120,0 0,-45.44 105.59,0 0,-43.83 -105.59,0 0,-47.04 121.59,0 0,-43.84 -170.55,0 0,223.99"
         style="fill:#ffffff;fill-opacity:1;fill-rule:nonzero;stroke:none"
         id="path28"
         inkscape:connector-curvature="0" /><path
         d="m 3068.3,3749.25 -68.15,0 0,45.44 185.58,0 0,-45.44 -68.15,0 0,-178.55 -49.28,0 0,178.55"
         style="fill:#ffffff;fill-opacity:1;fill-rule:nonzero;stroke:none"
         id="path30"
         inkscape:connector-curvature="0" /><path
         d="m 3384.45,3682.05 0,0.65 c 0,38.39 -28.15,70.39 -67.83,70.39 -39.68,0 -67.2,-31.36 -67.2,-69.75 l 0,-0.64 c 0,-38.4 28.16,-70.4 67.84,-70.4 39.67,0 67.19,31.36 67.19,69.75 z m -186.54,0 0,0.65 c 0,63.67 50.23,115.82 119.35,115.82 69.12,0 118.71,-51.51 118.71,-115.18 l 0,-0.64 c 0,-63.68 -50.24,-115.83 -119.35,-115.83 -69.12,0 -118.71,51.51 -118.71,115.18"
         style="fill:#ffffff;fill-opacity:1;fill-rule:nonzero;stroke:none"
         id="path32"
         inkscape:connector-curvature="0" /><path
         d="m 920.652,2827.74 c -24.531,-33.45 -47.949,-70.25 -70.242,-100.36 4.453,0 11.153,0 21.184,-1.11 8.926,-1.12 15.613,-3.35 22.301,-5.58 49.066,3.34 100.363,34.56 120.435,82.51 20.07,46.84 5.57,88.1 -21.185,108.17 -23.418,-18.95 -47.95,-49.06 -72.493,-83.63 z M 398.785,2531.12 c -54.64,5.58 -95.898,2.23 -95.898,-17.84 0,-17.84 56.871,-24.53 86.976,-25.65 54.645,-1.12 120.434,5.57 150.543,14.5 -39.027,7.8 -101.476,25.64 -141.621,28.99 z m 673.525,428.21 c -24.53,-10.04 -51.29,-24.54 -64.67,-34.57 23.41,-15.61 76.94,-64.68 49.06,-131.59 -24.53,-56.87 -102.591,-80.29 -148.309,-80.29 l 0,-1.11 c 18.964,-7.81 36.804,-24.53 39.031,-46.84 2.226,-22.29 -11.152,-47.95 -22.305,-63.55 -20.066,-31.23 -40.144,-54.65 -40.144,-78.07 0,-8.92 5.574,-18.95 21.187,-18.95 17.844,0 43.488,14.5 80.285,42.37 23.415,17.84 41.265,33.46 53.535,44.61 6.69,6.69 12.27,11.15 15.61,7.8 2.22,-2.23 -1.12,-6.69 -7.81,-13.38 -13.38,-13.38 -32.34,-30.11 -59.096,-51.3 -32.344,-25.64 -69.141,-47.95 -103.711,-47.95 -35.688,0 -53.528,17.85 -53.528,44.61 -1.113,27.87 20.078,61.33 39.035,85.86 21.192,26.77 40.145,47.95 39.032,69.14 0,13.38 -11.153,21.18 -20.078,25.65 -6.692,-1.12 -16.731,-2.23 -24.532,-1.12 -10.039,1.12 -15.617,3.35 -20.066,5.58 -7.816,-11.15 -22.309,-31.22 -31.231,-42.37 -81.398,-99.25 -147.187,-133.82 -208.523,-160.58 14.496,-3.35 41.262,-7.81 54.645,-8.92 30.109,-2.23 57.976,3.35 81.394,18.95 16.731,11.15 16.731,14.5 18.957,13.39 2.235,-1.11 1.121,-8.93 -10.027,-18.97 -30.11,-26.75 -66.906,-36.79 -104.824,-36.79 -26.766,0 -66.907,10.04 -85.868,15.61 -44.601,-13.38 -114.851,-20.07 -168.379,-18.95 -40.144,0 -101.472,8.91 -101.472,36.79 0,29 44.601,46.84 114.851,43.49 47.95,-3.34 126.012,-24.53 182.883,-37.91 41.258,20.07 90.324,64.68 162.809,161.69 97.012,127.12 175.066,202.95 229.707,238.63 -25.649,15.62 -69.133,30.11 -139.387,30.11 -141.621,0 -292.156,-85.86 -320.039,-205.18 -14.496,-59.1 4.465,-110.4 57.988,-114.86 25.645,-2.23 27.875,4.46 30.11,1.12 2.23,-3.35 -11.157,-12.26 -32.34,-12.26 -66.91,2.23 -113.742,50.17 -99.242,127.12 23.418,126 191.797,214.1 363.523,214.1 78.059,0 130.469,-16.73 155,-28.99 17.839,13.38 49.059,28.99 71.369,37.91 23.42,10.03 63.56,21.19 101.47,21.19 33.46,0 68.02,-10.04 80.3,-29 5.57,-8.92 5.57,-16.72 3.34,-16.72 -3.34,0 -1.12,2.23 -10.04,12.26 -13.38,14.5 -41.26,23.42 -74.71,23.42 -28.99,0 -68.03,-10.04 -94.79,-21.18"
         style="fill:#ffffff;fill-opacity:1;fill-rule:nonzero;stroke:none"
         id="path34"
         inkscape:connector-curvature="0" /><path
         d="m 1046.68,2584.65 c -7.81,-6.69 -12.27,-8.93 -14.5,-6.69 -2.23,3.34 3.35,8.91 7.8,13.38 7.81,7.8 23.42,20.07 34.57,27.88 14.5,10.03 30.11,20.07 53.53,32.33 32.34,16.73 66.9,29 92.55,30.11 7.81,0 16.73,0 16.73,-4.46 0,-2.23 -3.35,-2.23 -12.26,-6.69 -26.77,-12.27 -49.07,-31.22 -80.3,-61.33 -32.33,-32.34 -62.44,-75.83 -64.67,-98.14 -1.12,-11.14 3.35,-18.95 15.61,-18.95 24.53,0 69.13,30.11 103.7,68.03 1.12,11.15 5.58,27.87 20.08,46.83 12.27,16.72 27.87,25.65 35.69,28.99 3.33,7.81 3.33,20.08 3.33,25.65 0,12.27 -4.46,15.61 -1.11,17.84 4.46,2.23 11.15,-2.23 15.62,-6.69 8.91,-8.92 15.6,-22.3 13.38,-39.03 -3.35,-26.76 -29,-59.1 -63.57,-90.32 4.46,-2.24 16.73,-1.11 21.19,0 10.03,2.23 22.3,7.8 37.91,18.95 14.5,10.04 23.42,17.85 35.69,29 10.04,8.91 15.61,14.49 18.95,11.15 3.35,-3.35 -3.34,-10.04 -14.49,-20.08 -10.04,-8.91 -21.19,-18.95 -35.68,-28.99 -17.85,-12.27 -31.22,-17.83 -42.38,-20.07 -10.04,-2.23 -23.42,-2.23 -30.1,2.24 -29,-22.31 -81.41,-54.65 -127.13,-54.65 -34.57,0 -55.76,16.73 -54.64,49.07 1.11,22.29 14.5,49.06 35.68,71.37 l -1.11,1.11 c -7.8,-6.69 -12.27,-11.15 -20.07,-17.84"
         style="fill:#ffffff;fill-opacity:1;fill-rule:nonzero;stroke:none"
         id="path36"
         inkscape:connector-curvature="0" /><path
         d="m 1363.37,2616.98 c -16.73,-13.38 -28.99,-23.42 -40.15,-33.44 -8.91,-7.82 -13.38,-11.16 -16.72,-8.93 -2.23,2.23 0,6.69 12.27,17.84 12.27,11.15 52.4,44.61 79.17,62.45 28.99,20.07 43.49,24.53 64.68,24.53 23.42,0 25.64,-3.35 12.26,-17.84 -14.5,-15.61 -35.68,-41.26 -57.99,-69.14 -17.84,-23.42 -35.68,-47.95 -41.26,-60.21 -4.46,-8.93 -4.46,-16.73 -1.11,-20.07 4.46,-4.46 14.49,-3.35 25.65,2.22 24.53,13.38 49.07,31.23 83.63,57.99 53.52,41.26 84.75,69.13 120.44,97.01 8.91,6.69 15.6,12.27 32.33,12.27 18.96,0 30.11,-2.23 16.73,-17.84 -20.08,-24.53 -36.8,-42.37 -59.1,-71.37 -18.96,-23.42 -33.46,-43.49 -41.26,-56.86 -6.69,-11.16 -7.8,-21.2 -3.35,-24.55 5.58,-4.45 14.5,-2.22 25.65,3.35 11.16,5.58 32.34,18.96 50.18,33.46 22.3,17.84 41.26,34.56 53.53,45.71 6.68,6.69 13.37,11.16 15.61,7.82 3.34,-2.24 -5.58,-11.16 -8.93,-14.51 -13.37,-13.37 -41.25,-36.79 -68.01,-57.98 -20.08,-15.61 -59.1,-44.6 -95.9,-44.6 -22.31,0 -34.57,10.04 -34.57,26.75 0,15.62 7.8,31.24 17.84,45.73 12.27,17.84 33.46,39.03 52.41,57.99 l -1.11,1.11 c -22.31,-17.84 -60.23,-47.95 -89.21,-70.25 -45.72,-34.58 -85.87,-61.33 -119.33,-61.33 -23.4,0 -37.91,11.15 -36.79,31.22 1.11,15.61 11.15,32.34 21.19,45.72 22.3,30.11 44.6,56.87 79.17,89.21 -7.8,-3.35 -31.22,-20.08 -47.95,-33.46"
         style="fill:#ffffff;fill-opacity:1;fill-rule:nonzero;stroke:none"
         id="path38"
         inkscape:connector-curvature="0" /><path
         d="m 1767.04,2600.25 c -45.72,-44.6 -64.68,-73.59 -62.45,-88.08 1.11,-7.81 6.69,-11.15 14.5,-11.15 21.18,0 63.56,24.53 93.66,52.4 35.69,31.23 75.83,79.18 76.95,97.02 1.11,14.49 -7.81,20.07 -20.07,20.07 -22.31,0 -62.45,-30.11 -102.59,-70.26 z m -250.91,-317.8 c -93.66,-62.45 -176.18,-139.38 -180.64,-197.37 -1.11,-16.74 5.57,-26.77 16.73,-30.11 17.84,-5.57 50.17,5.58 70.25,17.85 50.18,30.1 115.97,88.08 204.06,200.7 44.6,56.88 90.33,117.1 112.63,148.32 -65.79,-43.49 -119.32,-70.25 -223.03,-139.39 z m 357.96,399.21 c 22.3,-3.34 27.87,-20.07 25.65,-37.91 l 1.11,0 c 24.53,27.87 36.8,37.91 53.53,37.91 21.19,0 26.76,-4.46 14.5,-17.84 -20.08,-23.42 -35.69,-44.6 -57.99,-73.6 -18.96,-24.53 -57.99,-79.18 -91.45,-123.77 24.54,14.49 73.61,44.59 107.05,70.25 24.55,18.95 45.73,35.68 69.14,56.86 5.58,5.58 11.16,7.82 13.38,5.58 3.35,-3.34 -5.57,-11.15 -11.15,-16.73 -16.72,-15.6 -40.14,-34.56 -65.79,-54.64 -40.14,-30.1 -86.97,-59.1 -122.66,-79.17 -47.95,-70.25 -120.43,-163.93 -152.77,-199.61 -74.71,-82.52 -163.93,-152.75 -229.72,-187.32 -28.98,-15.63 -55.75,-23.42 -76.94,-23.42 -27.87,0 -57.98,8.9 -52.4,46.83 8.91,66.9 138.27,160.57 225.25,217.44 102.59,65.79 149.43,90.33 226.37,138.28 20.07,27.87 56.86,78.06 74.71,104.82 l -1.12,1.11 c -30.1,-25.65 -79.17,-60.22 -120.43,-62.44 -24.53,-1.12 -49.06,7.8 -45.72,44.6 2.23,16.73 11.15,34.57 31.22,57.98 l -1.11,1.12 c -3.34,-3.34 -7.8,-7.8 -14.49,-13.38 -4.47,-3.34 -7.82,-5.58 -10.04,-3.34 -2.23,3.34 5.57,12.27 17.84,23.41 3.35,3.35 20.07,16.73 31.22,24.54 11.15,7.8 28.99,20.07 51.3,31.22 40.14,21.18 82.52,35.68 111.51,31.22"
         style="fill:#ffffff;fill-opacity:1;fill-rule:nonzero;stroke:none"
         id="path40"
         inkscape:connector-curvature="0" /><path
         d="m 2352.47,2861.19 c 107.05,92.56 206.3,181.77 210.75,230.83 1.12,14.5 -6.69,21.19 -18.95,21.19 -18.96,0 -49.06,-22.3 -72.48,-44.61 -36.8,-36.79 -90.33,-90.32 -148.31,-159.45 -81.41,-97.02 -110.4,-132.7 -170.62,-213 105.94,92.56 148.31,120.44 199.61,165.04 z m -163.93,-376.9 c -22.29,0 -34.57,10.04 -33.44,28.99 1.11,24.53 25.64,52.41 46.83,78.06 16.72,20.07 33.45,37.91 46.83,54.64 4.46,5.57 6.69,12.26 1.12,15.61 -5.57,3.34 -17.84,-1.12 -28.99,-6.69 -20.08,-10.04 -51.3,-28.99 -86.98,-56.87 -49.07,-37.91 -75.83,-63.57 -124.9,-101.48 -10.04,-7.8 -16.72,-10.04 -28.99,-10.04 -15.61,0 -22.31,2.24 -14.49,17.85 11.15,21.19 26.76,46.83 45.71,74.71 8.93,13.38 20.08,27.88 33.46,44.6 l 0,1.12 c -16.73,-14.5 -30.11,-26.76 -42.38,-37.92 -6.69,-5.57 -10.03,-6.68 -12.26,-3.33 -1.11,3.33 2.23,6.68 5.57,10.02 4.47,4.47 46.84,41.26 72.49,62.46 37.91,50.17 84.74,110.39 134.93,167.26 64.67,74.71 200.71,217.45 258.7,257.59 31.22,22.3 62.45,44.6 94.78,44.6 29,0 37.92,-20.06 34.57,-40.14 -8.92,-53.52 -115.97,-142.73 -228.6,-236.4 -68.02,-55.76 -144.96,-109.28 -227.48,-181.76 -18.96,-21.19 -65.79,-89.21 -92.55,-128.24 l 1.11,-1.12 c 26.76,22.31 63.57,54.64 102.59,83.64 39.04,28.99 88.1,60.21 121.55,60.21 23.41,0 36.8,-11.15 34.57,-30.11 -3.34,-20.07 -26.76,-45.72 -44.6,-68.01 -17.85,-21.2 -30.11,-37.92 -36.8,-49.08 -7.81,-13.38 -8.93,-21.18 -4.46,-24.53 5.57,-4.46 17.84,0 26.75,4.46 13.39,6.69 27.88,14.5 53.53,34.57 18.96,14.5 41.26,34.58 53.52,45.72 8.93,7.81 12.27,8.92 14.51,6.7 2.22,-2.24 -1.12,-6.7 -8.93,-14.51 -10.03,-10.03 -43.49,-40.14 -66.9,-57.98 -22.31,-16.72 -65.79,-44.6 -100.37,-44.6"
         style="fill:#ffffff;fill-opacity:1;fill-rule:nonzero;stroke:none"
         id="path42"
         inkscape:connector-curvature="0" /><path
         d="m 2393.72,2480.94 c -41.26,0 -61.33,16.73 -59.1,46.83 2.24,22.31 14.5,45.73 32.34,66.91 l -1.11,1.12 c -3.35,-3.35 -12.27,-11.15 -18.97,-16.73 -6.68,-5.57 -12.26,-8.92 -14.49,-6.69 -2.22,3.34 2.23,7.81 6.69,12.27 14.5,13.38 24.53,21.18 41.26,33.45 12.27,8.92 34.57,23.41 53.53,33.45 37.91,20.07 73.59,34.57 102.59,30.11 25.65,-4.46 34.57,-21.19 30.1,-42.37 -4.45,-21.19 -23.42,-37.91 -37.91,-37.91 -18.95,0 -18.95,15.6 -8.92,32.33 12.27,21.19 16.73,34.57 3.35,36.8 -12.27,2.23 -37.91,-14.49 -69.14,-46.84 -30.11,-30.11 -59.1,-72.48 -62.45,-99.24 -2.22,-16.72 7.81,-25.65 25.65,-25.65 14.5,0 53.52,6.69 102.59,40.15 21.19,14.49 49.07,37.91 66.91,53.52 6.69,5.58 10.03,6.69 12.27,4.46 2.22,-3.35 -2.24,-7.81 -8.93,-14.5 -14.49,-13.38 -45.71,-40.13 -65.79,-53.52 -39.02,-26.76 -91.44,-47.95 -129.35,-47.95 l -1.12,0"
         style="fill:#ffffff;fill-opacity:1;fill-rule:nonzero;stroke:none"
         id="path44"
         inkscape:connector-curvature="0" /><path
         d="m 2825.26,2616.98 c -22.3,-18.95 -61.33,-49.06 -90.32,-71.36 -45.72,-34.58 -85.87,-61.33 -119.31,-61.33 -23.42,0 -36.81,12.26 -35.69,32.33 1.11,12.27 7.8,27.88 20.07,44.61 23.42,31.22 51.3,62.44 79.17,89.21 -7.8,-3.35 -32.33,-21.19 -49.06,-34.57 -16.73,-13.38 -27.88,-22.31 -39.04,-32.33 -8.91,-7.82 -13.37,-11.16 -16.71,-8.93 -2.24,2.23 0,6.69 12.26,17.84 12.27,11.15 52.4,44.61 79.17,62.45 28.99,20.07 43.49,24.53 64.68,24.53 23.42,0 25.64,-3.35 12.26,-17.84 -14.5,-15.61 -35.68,-41.26 -57.98,-69.14 -18.96,-23.42 -35.69,-47.95 -41.26,-60.21 -4.47,-8.93 -4.47,-16.73 -1.12,-20.07 4.47,-4.46 14.5,-2.24 25.65,3.34 24.53,13.38 49.07,30.11 83.63,56.87 53.53,41.26 84.76,69.13 120.44,97.01 8.92,6.69 15.61,12.27 32.33,12.27 18.96,0 27.88,-2.23 15.62,-16.73 -17.84,-23.42 -43.5,-56.86 -65.79,-86.97 -18.97,-24.54 -63.57,-82.52 -147.2,-197.38 -98.13,-133.82 -181.77,-258.7 -197.37,-285.48 -8.93,-14.49 -8.93,-20.06 -5.58,-22.28 3.34,-2.25 8.92,0 16.73,8.9 11.14,12.27 50.18,68.03 81.4,112.64 25.65,35.68 68.02,97.01 126,171.72 45.72,57.99 94.79,114.86 142.74,162.81 16.73,16.73 53.52,51.3 68.02,64.67 3.34,3.35 12.27,11.16 15.61,7.82 2.24,-3.35 -3.34,-8.93 -12.27,-17.84 -14.49,-13.39 -37.91,-35.69 -64.66,-62.46 -42.39,-43.48 -95.91,-104.82 -140.51,-161.69 -52.41,-69.13 -98.14,-132.69 -132.7,-182.88 -35.68,-50.18 -66.91,-97.01 -94.78,-122.66 -10.04,-8.92 -21.19,-15.6 -32.35,-14.49 -12.26,1.11 -21.18,7.79 -21.18,23.42 0,18.94 20.07,53.51 45.72,94.78 40.14,63.56 71.36,109.28 150.54,218.56 53.53,73.6 107.05,148.31 173.96,239.75 l -1.12,1.11"
         style="fill:#ffffff;fill-opacity:1;fill-rule:nonzero;stroke:none"
         id="path46"
         inkscape:connector-curvature="0" /><path
         d="m 2983.6,2480.94 c -41.26,0 -61.32,16.73 -59.1,46.83 2.24,22.31 14.5,45.73 32.35,66.91 l -1.12,1.12 c -3.35,-3.35 -12.26,-11.15 -18.96,-16.73 -6.69,-5.57 -12.27,-8.92 -14.49,-6.69 -2.23,3.34 2.22,7.81 6.68,12.27 14.51,13.38 24.54,21.18 41.26,33.45 12.27,8.92 34.57,23.41 53.53,33.45 37.91,20.07 73.59,34.57 102.59,30.11 25.65,-4.46 34.57,-21.19 30.11,-42.37 -4.46,-21.19 -23.42,-37.91 -37.91,-37.91 -18.96,0 -18.96,15.6 -8.93,32.33 12.27,21.19 16.73,34.57 3.35,36.8 -12.27,2.23 -37.91,-14.49 -69.14,-46.84 -30.11,-30.11 -59.09,-72.48 -62.44,-99.24 -2.23,-16.72 7.8,-25.65 25.64,-25.65 14.5,0 53.53,6.69 102.59,40.15 21.19,14.49 49.07,37.91 66.91,53.52 6.69,5.58 10.03,6.69 12.27,4.46 2.23,-3.35 -2.24,-7.81 -8.93,-14.5 -14.49,-13.38 -45.71,-40.13 -65.79,-53.52 -39.02,-26.76 -91.43,-47.95 -129.34,-47.95 l -1.13,0"
         style="fill:#ffffff;fill-opacity:1;fill-rule:nonzero;stroke:none"
         id="path48"
         inkscape:connector-curvature="0" /><path
         d="m 3230.04,2628.13 c -16.73,-14.49 -33.46,-30.1 -45.72,-41.26 -6.69,-5.57 -10.04,-6.68 -12.27,-3.33 -1.11,3.33 2.23,6.68 5.58,10.02 4.46,4.47 46.83,41.26 81.39,70.26 29,36.8 83.65,104.82 131.6,159.46 37.91,44.61 83.63,93.67 132.69,138.27 13.38,12.27 25.65,18.96 40.15,18.96 11.15,0 16.72,-4.46 16.72,-7.8 -21.19,-21.19 -119.32,-129.36 -166.15,-185.11 -74.71,-90.32 -155.01,-194.04 -178.41,-245.32 -3.35,-7.82 -10.04,-23.42 -2.24,-30.11 7.81,-5.58 24.53,1.11 34.57,6.69 14.49,7.8 30.11,18.95 45.72,31.22 20.07,15.61 34.57,27.88 49.06,41.26 4.47,4.46 13.38,12.26 16.73,8.91 2.23,-2.22 -1.11,-6.69 -7.81,-13.38 -13.38,-13.37 -41.26,-37.91 -68.02,-57.98 -22.3,-16.72 -63.56,-44.6 -100.36,-44.6 -22.3,0 -35.68,10.04 -34.57,30.1 1.12,26.76 29,70.26 62.45,112.63 l -1.11,1.11"
         style="fill:#ffffff;fill-opacity:1;fill-rule:nonzero;stroke:none"
         id="path50"
         inkscape:connector-curvature="0" /><path
         d="m 3612.52,2829.97 c 14.5,0 21.19,-12.26 7.81,-28.99 -13.38,-17.85 -41.26,-30.11 -52.41,-30.11 -5.58,6.69 -6.69,23.42 -1.11,37.91 6.69,16.73 23.41,21.19 44.6,21.19 l 1.11,0 z m -204.06,-212.99 c -16.73,-13.38 -29,-23.42 -40.15,-33.44 -8.92,-7.82 -13.38,-11.16 -16.72,-8.93 -2.23,2.23 0,6.69 12.27,17.84 12.26,11.15 52.4,44.61 79.17,62.45 28.99,20.07 43.48,24.53 64.68,24.53 23.41,0 25.64,-3.35 12.26,-17.84 -20.07,-22.3 -37.92,-43.49 -60.21,-71.37 -18.96,-23.41 -32.35,-43.49 -39.04,-54.63 -6.69,-12.28 -7.8,-20.08 -3.34,-24.55 5.58,-4.45 15.61,-2.22 26.76,3.35 11.15,5.58 30.11,17.85 49.06,33.46 23.42,18.96 33.46,27.87 51.3,44.6 10.04,8.93 14.49,13.38 17.84,10.04 3.35,-3.35 -8.92,-14.5 -12.26,-17.84 -13.38,-13.38 -41.26,-37.92 -63.57,-55.76 -22.29,-17.85 -60.21,-45.72 -97.01,-45.72 -23.42,0 -33.46,11.16 -33.46,29 0,14.49 7.82,28.98 16.73,42.37 22.31,34.56 65.79,80.28 83.64,95.9 -7.81,-3.35 -31.22,-20.08 -47.95,-33.46"
         style="fill:#ffffff;fill-opacity:1;fill-rule:nonzero;stroke:none"
         id="path52"
         inkscape:connector-curvature="0" /><path
         d="m 3744.09,2513.28 c 1.12,24.53 25.66,52.41 46.84,78.06 16.73,20.07 33.45,39.02 46.83,54.64 4.47,5.57 6.69,12.26 1.12,15.61 -5.58,3.34 -17.84,-1.12 -29,-6.69 -20.07,-10.04 -51.29,-28.99 -86.97,-56.87 -49.07,-37.91 -75.83,-63.57 -124.89,-101.48 -10.04,-7.8 -16.73,-10.04 -29,-10.04 -15.61,0 -23.41,2.24 -14.5,17.85 7.81,14.5 31.23,51.29 49.07,74.71 12.27,16.73 32.34,42.38 44.6,57.99 7.81,10.03 10.04,15.61 7.81,18.96 -3.34,4.45 -10.03,2.22 -16.72,-1.12 -13.39,-6.7 -30.12,-18.96 -43.5,-30.11 -14.49,-12.27 -32.33,-27.88 -47.95,-42.38 -11.15,-10.03 -15.6,-13.38 -18.95,-10.03 -2.23,3.34 3.35,8.92 16.73,21.18 13.37,12.27 37.91,35.69 57.98,51.3 30.11,23.42 52.41,36.8 75.82,36.8 21.2,0 27.88,-12.27 27.88,-24.53 0,-13.38 -8.91,-27.88 -23.41,-47.95 -16.73,-22.31 -40.15,-52.41 -52.42,-70.25 l 1.12,-1.12 c 26.77,22.31 63.56,54.64 102.6,83.64 39.02,28.99 88.08,60.21 121.54,60.21 23.42,0 36.8,-11.15 34.57,-30.11 -3.35,-20.07 -26.77,-45.72 -44.61,-68.01 -17.84,-21.2 -31.22,-40.15 -36.8,-49.08 -8.91,-14.49 -8.91,-21.18 -4.45,-24.53 5.57,-4.46 17.83,0 26.76,4.46 13.38,6.69 28.99,15.62 53.52,34.57 18.96,14.5 41.26,34.58 53.53,45.72 8.92,7.81 12.26,8.92 14.49,6.7 2.24,-2.24 -1.11,-6.7 -8.92,-14.51 -10.03,-10.03 -43.48,-40.14 -66.9,-57.98 -22.3,-16.72 -65.79,-44.6 -100.36,-44.6 -21.19,0 -34.57,10.04 -33.46,28.99"
         style="fill:#ffffff;fill-opacity:1;fill-rule:nonzero;stroke:none"
         id="path54"
         inkscape:connector-curvature="0" /><path
         d="m 4026.22,2600.25 c -45.72,-44.6 -64.68,-73.59 -62.45,-88.08 1.11,-7.81 6.69,-11.15 14.5,-11.15 21.18,0 63.56,24.53 93.66,52.4 35.69,31.23 75.83,79.18 76.95,97.02 1.11,14.49 -7.81,20.07 -20.07,20.07 -22.31,0 -62.45,-30.11 -102.59,-70.26 z m -250.91,-317.8 c -93.66,-62.45 -176.18,-139.38 -180.64,-197.37 -1.12,-16.74 5.57,-26.77 16.73,-30.11 17.84,-5.57 50.17,5.58 70.25,17.85 50.18,30.1 115.97,88.08 204.06,200.7 44.6,56.88 90.33,117.1 112.63,148.32 -65.79,-43.49 -119.32,-70.25 -223.03,-139.39 z m 357.96,399.21 c 22.3,-3.34 27.87,-20.07 25.65,-37.91 l 1.11,0 c 24.53,27.87 36.8,37.91 53.52,37.91 21.2,0 26.77,-4.46 14.51,-17.84 -20.08,-23.42 -35.69,-44.6 -57.99,-73.6 -18.96,-24.53 -57.99,-79.18 -91.45,-123.77 24.54,14.49 73.61,44.59 107.05,70.25 24.54,18.95 45.73,35.68 69.14,56.86 5.58,5.58 11.16,7.82 13.38,5.58 3.35,-3.34 -5.57,-11.15 -11.15,-16.73 -16.72,-15.6 -40.14,-34.56 -65.79,-54.64 -40.14,-30.1 -86.97,-59.1 -122.66,-79.17 -47.95,-70.25 -120.43,-163.93 -152.77,-199.61 -74.71,-82.52 -163.93,-152.75 -229.72,-187.32 -28.98,-15.63 -55.75,-23.42 -76.94,-23.42 -27.87,0 -57.98,8.9 -52.4,46.83 8.91,66.9 138.27,160.57 225.25,217.44 102.59,65.79 149.43,90.33 226.37,138.28 20.07,27.87 56.86,78.06 74.71,104.82 l -1.12,1.11 c -30.1,-25.65 -79.17,-60.22 -120.43,-62.44 -24.53,-1.12 -49.06,7.8 -45.72,44.6 2.23,16.73 11.15,34.57 31.22,57.98 l -1.11,1.12 c -3.34,-3.34 -7.8,-7.8 -14.49,-13.38 -4.47,-3.34 -7.82,-5.58 -10.04,-3.34 -2.23,3.34 5.57,12.27 17.84,23.41 3.35,3.35 20.07,16.73 31.22,24.54 11.15,7.8 28.99,20.07 51.3,31.22 40.14,21.18 82.52,35.68 111.51,31.22"
         style="fill:#ffffff;fill-opacity:1;fill-rule:nonzero;stroke:none"
         id="path56"
         inkscape:connector-curvature="0" /><path
         d="m 1866.26,1848.03 c 11.15,51.29 -24.53,74.71 -83.63,73.6 -16.73,0 -45.73,-5.59 -59.1,-11.16 8.91,-15.62 16.72,-41.27 18.95,-61.32 2.23,-17.86 0,-29.01 -3.35,-27.9 -2.23,1.12 -1.11,6.7 -4.45,22.31 -4.47,22.3 -16.73,47.95 -26.77,61.33 -59.1,-22.31 -126.01,-65.78 -173.95,-109.28 39.02,-28.98 101.47,-41.25 161.68,-41.25 81.41,0 158.35,39.02 170.62,93.67 z m -383.6,36.8 c 0,-21.19 7.81,-43.5 22.3,-62.46 60.22,40.15 133.81,74.72 196.26,92.56 -34.57,37.91 -81.41,60.21 -128.24,60.21 -47.95,0 -90.32,-34.57 -90.32,-90.31 z m 236.4,34.57 c 15.62,4.45 39.03,8.91 59.1,10.02 70.26,4.47 141.63,-15.61 129.36,-83.63 -12.27,-69.12 -129.36,-102.58 -214.1,-102.58 -62.45,0 -128.24,14.49 -168.39,44.59 -84.75,-75.82 -144.96,-177.29 -144.96,-249.79 0,-64.67 40.14,-90.31 95.9,-90.31 65.79,0 118.2,28.98 161.69,57.99 28.99,20.06 55.76,43.48 69.14,55.74 15.6,14.51 21.18,18.97 24.53,15.63 2.22,-2.23 -3.35,-8.93 -8.93,-14.5 -26.76,-24.55 -55.75,-50.19 -80.28,-66.91 -45.72,-32.34 -102.59,-60.22 -168.38,-63.56 -92.56,-3.35 -157.24,30.1 -160.58,112.62 -3.35,98.13 90.33,204.06 182.88,270.98 -15.61,20.08 -27.88,44.61 -27.88,70.25 0,62.44 53.53,103.69 113.74,103.69 53.53,0 107.06,-26.75 137.16,-70.23"
         style="fill:#ffffff;fill-opacity:1;fill-rule:nonzero;stroke:none"
         id="path58"
         inkscape:connector-curvature="0" /><path
         d="m 1762.56,1596 c -16.73,-13.38 -29,-23.42 -40.15,-33.44 -8.91,-7.81 -13.38,-11.15 -16.72,-8.92 -2.23,2.22 0,6.68 12.27,17.83 12.26,11.15 52.4,44.61 79.17,62.46 28.99,20.06 43.49,24.53 64.68,24.53 23.41,0 25.64,-3.36 12.26,-17.85 -14.5,-15.61 -35.68,-41.25 -57.99,-69.14 -17.84,-23.42 -35.68,-47.95 -41.26,-60.22 -4.46,-8.92 -4.46,-16.71 -1.11,-20.05 4.46,-4.48 14.49,-3.36 25.65,2.22 24.53,13.38 49.07,31.21 83.63,57.99 53.52,41.25 84.75,69.12 120.44,97.01 8.91,6.68 15.6,12.27 32.33,12.27 18.96,0 30.11,-2.23 16.73,-17.85 -20.07,-24.53 -36.8,-42.37 -59.1,-71.37 -18.96,-23.42 -33.46,-43.48 -41.26,-56.86 -6.69,-11.15 -7.8,-21.19 -3.35,-24.55 5.58,-4.45 14.5,-2.22 25.65,3.36 11.16,5.57 32.34,18.95 50.18,33.46 22.3,17.83 41.26,34.55 53.52,45.7 6.69,6.7 13.38,11.16 15.62,7.82 3.34,-2.23 -5.58,-11.16 -8.93,-14.5 -13.37,-13.38 -41.26,-36.79 -68.01,-57.98 -20.07,-15.61 -59.1,-44.61 -95.9,-44.61 -22.31,0 -34.57,10.03 -34.57,26.75 0,15.63 7.8,31.23 17.84,45.73 12.27,17.85 33.46,39.04 52.41,57.98 l -1.11,1.12 c -22.31,-17.83 -60.23,-47.95 -89.21,-70.26 -45.72,-34.57 -85.87,-61.32 -119.32,-61.32 -23.41,0 -37.92,11.15 -36.8,31.23 1.12,15.6 11.15,32.34 21.19,45.72 22.3,30.1 44.6,56.85 79.17,89.2 -7.8,-3.34 -31.22,-20.08 -47.95,-33.46"
         style="fill:#ffffff;fill-opacity:1;fill-rule:nonzero;stroke:none"
         id="path60"
         inkscape:connector-curvature="0" /><path
         d="m 2130.55,1607.15 c -16.73,-14.49 -33.46,-30.09 -45.73,-41.25 -6.69,-5.58 -10.03,-6.7 -12.26,-3.34 -1.11,3.34 2.23,6.68 5.57,10.02 4.47,4.48 46.84,41.27 81.4,70.26 29,36.79 83.64,104.82 131.59,159.47 37.91,44.59 83.64,93.67 132.7,138.26 13.38,12.27 25.64,18.97 40.14,18.97 11.16,0 16.72,-4.46 16.72,-7.82 -21.18,-21.19 -119.31,-129.35 -166.14,-185.09 -74.72,-90.34 -155.01,-194.05 -178.42,-245.34 -3.35,-7.81 -10.04,-23.41 -2.23,-30.09 7.81,-5.59 24.53,1.11 34.57,6.68 14.49,7.81 30.1,18.96 45.72,31.23 20.07,15.6 34.57,27.87 49.06,41.25 4.47,4.47 13.38,12.26 16.73,8.92 2.23,-2.22 -1.11,-6.7 -7.81,-13.38 -13.38,-13.38 -41.26,-37.91 -68.02,-57.98 -22.3,-16.72 -63.56,-44.61 -100.36,-44.61 -22.31,0 -35.68,10.03 -34.57,30.11 1.12,26.76 28.99,70.26 62.45,112.62 l -1.11,1.11"
         style="fill:#ffffff;fill-opacity:1;fill-rule:nonzero;stroke:none"
         id="path62"
         inkscape:connector-curvature="0" /><path
         d="m 2271.05,1564.79 c -7.81,-6.7 -11.15,-7.81 -13.37,-5.59 -2.24,2.23 0,6.7 7.8,13.38 30.11,26.78 60.21,53.54 81.4,72.48 -14.5,0 -26.76,-1.11 -40.14,-1.11 -7.81,0 -13.38,0 -12.27,5.59 1.12,4.45 12.27,5.56 30.11,6.68 14.49,1.13 26.76,1.13 31.22,1.13 34.57,42.36 79.17,91.42 104.83,115.96 20.06,20.07 46.83,45.72 70.24,45.72 11.15,0 15.61,-3.34 16.73,-6.68 -13.38,-12.27 -42.38,-43.5 -68.02,-72.5 -25.65,-28.99 -45.72,-53.52 -68.03,-82.5 25.66,1.11 45.73,1.11 63.57,1.11 8.92,0 16.73,-1.11 15.61,-6.7 -1.12,-6.7 -11.15,-5.56 -20.08,-5.56 -24.53,0 -42.37,0 -68.01,-1.14 -22.31,-26.75 -60.22,-83.63 -80.3,-122.65 -6.69,-12.27 -10.03,-27.87 -1.11,-32.35 6.69,-3.34 18.96,0 27.88,4.48 13.38,6.68 32.34,18.94 50.18,33.45 20.08,15.61 39.03,33.44 52.41,44.59 5.58,4.48 12.26,11.16 15.61,7.82 2.23,-2.23 0,-5.57 -7.81,-13.38 -12.26,-12.27 -44.6,-41.27 -68.02,-59.1 -20.06,-15.61 -60.21,-45.73 -102.58,-45.73 -25.66,0 -34.57,14.49 -33.46,31.23 2.24,27.87 27.88,68.01 60.21,110.39 -17.84,-14.49 -31.22,-26.75 -44.6,-39.02"
         style="fill:#ffffff;fill-opacity:1;fill-rule:nonzero;stroke:none"
         id="path64"
         inkscape:connector-curvature="0" /><path
         d="m 2495.19,1596 c -16.73,-13.38 -29,-23.42 -40.15,-33.44 -8.92,-7.81 -13.38,-11.15 -16.72,-8.92 -2.24,2.22 0,6.68 12.27,17.83 12.26,11.15 52.4,44.61 79.17,62.46 28.99,20.06 43.48,24.53 64.67,24.53 23.42,0 25.65,-3.36 12.27,-17.85 -14.5,-15.61 -35.68,-41.25 -57.99,-69.14 -17.84,-23.42 -35.68,-47.95 -41.26,-60.22 -4.46,-8.92 -4.46,-16.71 -1.11,-20.05 4.46,-4.48 14.49,-3.36 25.64,2.22 24.53,13.38 49.07,31.21 83.64,57.99 53.52,41.25 84.75,69.12 120.43,97.01 8.92,6.68 15.61,12.27 32.34,12.27 18.95,0 30.11,-2.23 16.73,-17.85 -20.08,-24.53 -36.8,-42.37 -59.1,-71.37 -18.96,-23.42 -33.46,-43.48 -41.26,-56.86 -6.69,-11.15 -7.81,-21.19 -3.35,-24.55 5.57,-4.45 14.5,-2.22 25.65,3.36 11.15,5.57 32.33,18.95 50.18,33.46 22.3,17.83 41.26,34.55 53.52,45.7 6.69,6.7 13.38,11.16 15.62,7.82 3.34,-2.23 -5.58,-11.16 -8.93,-14.5 -13.38,-13.38 -41.26,-36.79 -68.02,-57.98 -20.07,-15.61 -59.1,-44.61 -95.89,-44.61 -22.31,0 -34.58,10.03 -34.58,26.75 0,15.63 7.81,31.23 17.85,45.73 12.26,17.85 33.45,39.04 52.41,57.98 l -1.11,1.12 c -22.31,-17.83 -60.23,-47.95 -89.21,-70.26 -45.73,-34.57 -85.87,-61.32 -119.33,-61.32 -23.41,0 -37.91,11.15 -36.8,31.23 1.12,15.6 11.16,32.34 21.19,45.72 22.31,30.1 44.6,56.85 79.17,89.2 -7.8,-3.34 -31.22,-20.08 -47.94,-33.46"
         style="fill:#ffffff;fill-opacity:1;fill-rule:nonzero;stroke:none"
         id="path66"
         inkscape:connector-curvature="0" /><path
         d="m 3002.56,1630.57 c 0,-14.49 -26.76,-37.91 -51.3,-66.89 -18.96,-22.31 -32.33,-41.27 -37.91,-52.43 -5.58,-10.03 -5.58,-17.83 -1.11,-21.19 4.46,-3.34 12.26,-2.22 24.53,4.48 12.26,6.68 32.33,18.94 50.17,33.45 24.54,18.95 37.92,30.1 52.42,43.48 7.81,7.81 14.5,11.15 16.72,8.93 3.35,-3.34 -4.46,-10.04 -13.37,-18.97 -13.38,-12.26 -35.69,-32.32 -63.57,-53.51 -23.42,-17.86 -62.44,-44.61 -99.25,-44.61 -23.41,0 -35.68,12.26 -34.56,29 1.12,24.53 28.99,55.74 53.53,79.16 26.76,25.64 69.13,55.76 72.48,63.57 4.46,12.27 -16.73,8.91 -44.61,8.91 -11.15,0 -20.07,0 -25.65,2.25 -8.91,-10.04 -24.53,-25.67 -42.37,-42.39 -18.95,-17.83 -32.34,-30.11 -44.61,-41.25 -10.03,-8.92 -14.49,-11.15 -16.72,-8.92 -2.23,2.22 1.12,7.79 12.27,17.83 13.38,12.27 23.42,21.19 43.48,40.16 15.62,14.49 30.11,28.98 39.04,39.02 -10.04,6.7 -11.15,22.3 0,35.68 8.91,11.16 24.53,18.97 42.37,18.97 8.92,0 18.96,-4.47 20.07,-11.15 -7.8,-5.59 -12.27,-8.93 -18.96,-15.63 -14.5,-15.6 -11.15,-23.42 3.34,-24.53 31.23,-1.11 63.57,-2.23 63.57,-22.31 l 0,-1.11"
         style="fill:#ffffff;fill-opacity:1;fill-rule:nonzero;stroke:none"
         id="path68"
         inkscape:connector-curvature="0" /><path
         d="m 3170.94,1573.7 c 27.87,18.96 44.6,42.38 45.71,57.98 1.12,10.04 -3.34,15.63 -13.38,15.63 -10.03,0 -26.76,-11.15 -49.06,-32.34 -17.84,-16.72 -45.72,-52.41 -59.1,-74.71 22.3,5.57 52.41,17.83 75.83,33.44 z m 37.91,-55.75 c 21.19,14.5 46.83,34.57 68.03,53.52 6.68,5.59 10.02,6.7 12.26,4.47 2.23,-3.36 -2.24,-8.92 -8.93,-14.51 -14.49,-13.38 -50.17,-42.36 -70.25,-55.74 -46.83,-31.23 -88.08,-45.72 -126,-45.72 -41.26,0 -60.22,15.6 -59.11,44.61 1.12,22.3 11.16,42.36 33.46,69.12 l -1.11,1.13 c -3.35,-3.36 -15.62,-14.51 -22.31,-20.08 -5.57,-4.45 -8.92,-5.58 -11.15,-3.34 -2.23,3.34 2.23,7.79 6.69,12.27 14.5,13.38 24.53,21.17 41.26,33.43 12.27,8.93 33.46,22.31 54.64,33.46 32.34,16.74 65.79,31.23 95.9,31.23 l 1.12,0 c 24.53,0 33.45,-15.6 32.33,-30.12 -2.22,-28.98 -37.91,-51.28 -71.36,-68 -32.34,-15.63 -70.26,-29.01 -95.9,-35.69 -4.46,-8.92 -6.69,-18.96 -6.69,-25.66 0,-16.72 8.91,-25.65 25.64,-25.65 14.51,0 52.42,7.82 101.48,41.27"
         style="fill:#ffffff;fill-opacity:1;fill-rule:nonzero;stroke:none"
         id="path70"
         inkscape:connector-curvature="0" /><path
         d="m 2098.08,676.742 0,0.629 c -2.91,0 -18.17,5.289 -45.76,15.879 -29.47,13.059 -54.89,26.34 -76.26,39.84 12.24,-6.66 26.98,-13.711 44.2,-21.168 13.9,-5.613 27.49,-10.082 40.78,-13.383 20.95,-4.98 39.11,-7.48 54.46,-7.48 l 9.34,0 c 38.8,0 74.7,8.613 107.69,25.839 31.13,17.852 52.71,42.114 64.75,72.832 4.76,15.352 7.15,26.969 7.15,34.86 l 0,2.191 c 0,23.649 -9.86,46.27 -29.57,67.848 -12.65,11.41 -23.44,18.992 -32.37,22.723 -8.09,3.937 -17.53,7.257 -28.32,9.957 -14.32,3.113 -25.63,4.671 -33.93,4.671 l -13.37,0 c -10.8,0 -24.91,-3.32 -42.34,-9.96 -10.8,-4.981 -20.76,-11 -29.88,-18.051 -8.1,4.769 -20.03,9.222 -35.8,13.383 -21.79,4.546 -39.94,6.847 -54.47,6.847 l -12.45,0 c -46.06,0 -87.56,-17.437 -124.5,-52.301 0,-0.41 -0.83,-1.347 -2.49,-2.789 l 0.31,0 c 16.81,13.063 32.58,22.61 47.31,28.629 30.51,13.282 60.28,19.922 89.33,19.922 l 6.24,0 c 21.99,0 46.58,-4.371 73.75,-13.07 l 9.65,-3.75 0,-0.309 c -9.13,-7.051 -16.7,-15.25 -22.72,-24.59 -6.64,-10.781 -9.96,-23.652 -9.96,-38.589 0.43,-11.821 3.94,-24.692 10.58,-38.602 3.74,-7.891 10.38,-15.871 19.93,-23.961 10.58,-8.707 23.03,-14.117 37.35,-16.187 1.24,-0.61 6.33,-0.922 15.25,-0.922 l 3.11,0 c 11,0 23.65,2.89 37.98,8.711 5.4,2.91 10.37,6.23 14.93,9.961 12.45,10.367 18.68,21.988 18.68,34.847 l 0,4.063 c 0,13.07 -6.95,23.847 -20.86,32.359 -9.96,5.18 -22.62,7.777 -37.97,7.777 -5.4,0 -11.31,-0.507 -17.73,-1.546 -1.05,8.707 -6.55,19.199 -16.51,31.429 -11.2,10.391 -19.7,16.399 -25.51,18.059 5.81,4.769 15.55,9.242 29.25,13.379 14.73,3.113 25.83,4.672 33.3,4.672 l 13.71,0 c 27.79,0 53.74,-7.77 77.8,-23.34 13.28,-11.012 20.55,-18.063 21.8,-21.172 13.06,-18.047 19.6,-37.457 19.6,-58.199 l 0,-9.032 c 0,-11.617 -4.88,-26.359 -14.62,-44.199 -4.15,-7.258 -11.21,-15.969 -21.18,-26.148 -12.45,-10.781 -21.99,-17.731 -28.63,-20.84 -8.5,-4.981 -20.44,-10.082 -35.8,-15.25 -20.54,-5.199 -38.08,-7.781 -52.6,-7.781 -43.16,0 -84.87,10.57 -125.11,31.742 -22.63,10.59 -54.07,30.297 -94.32,59.137 32.37,-18.879 70.14,-35.168 113.29,-48.879 34.66,-10.782 67.66,-18.77 98.98,-23.95 l 23.97,-3.75 0,0.629 c -30.5,6.231 -57.48,13.493 -80.93,21.789 -28.01,9.122 -59.14,22 -93.37,38.602 -23.44,12.031 -48.56,26.77 -75.33,44.199 -61,43.571 -94.31,66.699 -99.91,69.41 -22.21,13.891 -42.54,24.692 -61.01,32.36 -37.77,14.953 -74.91,22.41 -111.42,22.41 -33.21,0 -62.04,-5.18 -86.54,-15.547 -11,-4.363 -21.77,-9.863 -32.37,-16.5 -13.69,-9.773 -24.07,-19.09 -31.11,-28.012 -7.06,-8.32 -12.67,-16.922 -16.82,-25.84 -2.69,-5.41 -5.09,-13.5 -7.16,-24.281 l -1.55,-11.519 0,-4.981 c 0,-7.89 1.55,-18.89 4.66,-32.988 4.57,-13.91 9.55,-24.789 14.94,-32.68 12.26,-17.652 29.69,-30.922 52.3,-39.84 6.84,-3.32 18.88,-6.429 36.1,-9.339 l 15.89,-1.25 12.44,0 c 19.5,2.07 29.26,3.636 29.26,4.668 17.21,4.359 31.95,11.109 44.2,20.23 l -0.63,0 c -11.62,-5.801 -28.01,-10.07 -49.18,-12.75 l -13.07,-0.621 -4.66,0 c -22.63,0 -44.73,4.453 -66.3,13.371 -10.59,5.18 -20.04,10.898 -28.32,17.129 -13.09,11.41 -20.44,19.402 -22.1,23.973 -8.72,14.097 -13.08,23.957 -13.08,29.546 -1.04,1.872 -2.18,8.204 -3.43,19 l 0,4.364 c 0,11.617 3.11,25.207 9.34,40.758 6.43,12.46 14.74,23.968 24.9,34.55 10.16,9.34 18.58,16.078 25.22,20.239 8.5,4.98 19.08,9.761 31.74,14.312 17.63,5.199 32.16,7.777 43.58,7.777 l 13.08,0 c 15.13,0 37.65,-3.617 67.53,-10.878 33.21,-9.34 65.26,-23.032 96.19,-41.098 l 18.98,-12.133 c -20.76,10.59 -47.84,20.652 -81.24,30.199 -36.73,9.121 -67.23,13.692 -91.5,13.692 l 0,-0.621 c 25.51,-4.571 45.44,-9.559 59.75,-14.95 35.7,-10.777 73.46,-26.871 113.3,-48.238 l 0,-0.312 -0.31,0 c -11.63,3.929 -24.48,7.152 -38.59,9.652 -14.75,2.281 -25.53,3.418 -32.38,3.418 l -20.53,0 c -9.35,0 -24.4,-2.289 -45.15,-6.84 l 0,-0.617 c 2.49,0.41 6.95,0.617 13.39,0.617 l 12.45,0 c 45.86,0 91.61,-11.641 137.27,-34.859 8.3,-4.36 18.77,-11 31.43,-19.93 5.39,-3.73 15.57,-11.93 30.5,-24.578 19.31,-16.203 38.4,-30.102 57.27,-41.723 12.05,-7.269 25.74,-14.828 41.09,-22.719 26.78,-13.691 56.03,-24.082 87.77,-31.128 l 23.98,-3.11 z m -37.04,164.028 0.31,0.312 0,3.438 c 0,11.402 6.42,25.41 19.29,42.011 4.15,4.778 8.61,9.141 13.38,13.078 l 0,0.301 c 7.89,-2.289 15.46,-6.43 22.73,-12.441 7.67,-6.637 14,-14.848 18.98,-24.59 1.66,-4.359 2.49,-7.367 2.49,-9.027 l -0.93,0 c -6.44,-1.661 -12.45,-5.723 -18.05,-12.133 -4.57,-4.977 -6.85,-10.387 -6.85,-16.188 1.46,-4.57 3.73,-6.851 6.85,-6.851 l 2.18,0 c 5.4,0 10.89,4.55 16.49,13.691 1.88,7.668 2.8,14.219 2.8,19.609 l 0,0.309 c 2.91,0.633 7.38,0.941 13.39,0.941 15.35,0 28.73,-4.05 40.15,-12.148 12.24,-10.16 18.37,-20.844 18.37,-32.051 l 0,-0.941 c 0,-12.442 -8,-24.488 -23.97,-36.11 -12.46,-7.25 -26.26,-10.878 -41.39,-10.878 -28.86,0 -51.58,10.269 -68.18,30.796 -8.71,12.051 -14.11,23.872 -16.18,35.493 -0.83,7.668 -1.45,12.148 -1.86,13.379 m 53.53,-14.321 c 0,8.301 5.19,15.883 15.57,22.731 l 7.15,2.5 0.93,0 0,-0.328 c 0,-15.563 -4.67,-25.723 -14,-30.493 -1.25,-0.621 -2.7,-0.929 -4.36,-0.929 -2.49,0 -4.25,2.179 -5.29,6.519 m 451.32,-146.597 c 31.76,7.046 61,17.437 87.77,31.128 15.36,7.891 29.05,15.45 41.1,22.719 18.87,11.621 37.96,25.52 57.26,41.723 14.94,12.648 25.1,20.848 30.5,24.578 12.67,8.93 23.14,15.57 31.44,19.93 45.65,23.218 91.4,34.859 137.26,34.859 l 12.45,0 c 6.43,0 10.9,-0.207 13.39,-0.617 l 0,0.617 c -20.76,4.551 -35.8,6.84 -45.14,6.84 l -20.53,0 c -6.86,0 -17.65,-1.137 -32.38,-3.418 -14.11,-2.5 -26.98,-5.723 -38.59,-9.652 l -0.31,0 0,0.312 c 39.83,21.367 77.6,37.461 113.29,48.238 14.32,5.391 34.25,10.379 59.76,14.95 l 0,0.621 c -24.27,0 -54.78,-4.571 -91.51,-13.692 -33.41,-9.547 -60.49,-19.609 -81.23,-30.199 l 18.98,12.133 c 30.92,18.066 62.98,31.758 96.19,41.098 29.87,7.261 52.38,10.878 67.54,10.878 l 13.07,0 c 11.4,0 25.93,-2.578 43.58,-7.777 12.65,-4.551 23.23,-9.332 31.74,-14.312 6.64,-4.161 15.04,-10.899 25.21,-20.239 10.17,-10.582 18.48,-22.09 24.9,-34.55 6.23,-15.551 9.35,-29.141 9.35,-40.758 l 0,-4.364 c -1.25,-10.796 -2.4,-17.128 -3.43,-19 0,-5.589 -4.36,-15.449 -13.08,-29.546 -1.66,-4.571 -9.02,-12.563 -22.1,-23.973 -8.3,-6.231 -17.74,-11.949 -28.32,-17.129 -21.58,-8.918 -43.68,-13.371 -66.3,-13.371 l -4.66,0 -13.08,0.621 c -21.16,2.68 -37.56,6.949 -49.18,12.75 l -0.62,0 c 12.24,-9.121 26.98,-15.871 44.2,-20.23 0,-1.032 9.75,-2.598 29.26,-4.668 l 12.45,0 15.87,1.25 c 17.22,2.91 29.26,6.019 36.12,9.339 22.6,8.918 40.03,22.188 52.28,39.84 5.39,7.891 10.37,18.77 14.94,32.68 3.11,14.098 4.67,25.098 4.67,32.988 l 0,4.981 -1.56,11.519 c -2.07,10.781 -4.47,18.871 -7.16,24.281 -4.15,8.918 -9.76,17.52 -16.81,25.84 -7.05,8.922 -17.43,18.239 -31.12,28.012 -10.59,6.637 -21.38,12.137 -32.36,16.5 -24.5,10.367 -53.34,15.547 -86.54,15.547 -36.53,0 -73.67,-7.457 -111.42,-22.41 -18.48,-7.668 -38.82,-18.469 -61.02,-32.36 -5.59,-2.711 -38.9,-25.839 -99.91,-69.41 -26.77,-17.429 -51.88,-32.168 -75.32,-44.199 -34.24,-16.602 -65.36,-29.48 -93.38,-38.602 -23.45,-8.296 -50.43,-15.558 -80.93,-21.789 l 0,-0.629 23.98,3.75 c 31.32,5.18 64.31,13.168 98.97,23.95 43.15,13.711 80.93,30 113.29,48.879 -40.24,-28.84 -71.69,-48.547 -94.31,-59.137 -40.26,-21.172 -81.96,-31.742 -125.11,-31.742 -14.53,0 -32.06,2.582 -52.61,7.781 -15.36,5.168 -27.29,10.269 -35.8,15.25 -6.64,3.109 -16.17,10.059 -28.62,20.84 -9.97,10.179 -17.03,18.89 -21.18,26.148 -9.75,17.84 -14.62,32.582 -14.62,44.199 l 0,9.032 c 0,20.742 6.53,40.152 19.6,58.199 1.25,3.109 8.51,10.16 21.79,21.172 24.07,15.57 50,23.34 77.81,23.34 l 13.71,0 c 7.47,0 18.56,-1.559 33.3,-4.672 13.7,-4.137 23.44,-8.61 29.25,-13.379 -5.81,-1.66 -14.32,-7.668 -25.51,-18.059 -9.96,-12.23 -15.46,-22.722 -16.51,-31.429 -6.42,1.039 -12.35,1.546 -17.74,1.546 -15.35,0 -28.01,-2.597 -37.97,-7.777 -13.91,-8.512 -20.86,-19.289 -20.86,-32.359 l 0,-4.063 c 0,-12.859 6.23,-24.48 18.68,-34.847 4.56,-3.731 9.54,-7.051 14.94,-9.961 14.32,-5.821 26.98,-8.711 37.97,-8.711 l 3.12,0 c 8.91,0 14,0.312 15.25,0.922 14.31,2.07 26.76,7.48 37.35,16.187 9.55,8.09 16.19,16.07 19.93,23.961 6.63,13.91 10.15,26.781 10.57,38.602 0,14.937 -3.32,27.808 -9.96,38.589 -6.01,9.34 -13.58,17.539 -22.71,24.59 l 0,0.309 9.65,3.75 c 27.17,8.699 51.76,13.07 73.76,13.07 l 6.23,0 c 29.04,0 58.82,-6.64 89.32,-19.922 14.73,-6.019 30.5,-15.566 47.32,-28.629 l 0.3,0 c -1.66,1.442 -2.49,2.379 -2.49,2.789 -36.93,34.864 -78.44,52.301 -124.49,52.301 l -12.45,0 c -14.54,0 -32.69,-2.301 -54.48,-6.847 -15.77,-4.161 -27.69,-8.614 -35.8,-13.383 -9.13,7.051 -19.09,13.07 -29.88,18.051 -17.42,6.64 -31.53,9.96 -42.33,9.96 l -13.37,0 c -8.3,0 -19.61,-1.558 -33.94,-4.671 -10.79,-2.7 -20.22,-6.02 -28.32,-9.957 -8.93,-3.731 -19.72,-11.313 -32.36,-22.723 -19.73,-21.578 -29.57,-44.199 -29.57,-67.848 l 0,-2.191 c 0,-7.891 2.37,-19.508 7.15,-34.86 12.04,-30.718 33.61,-54.98 64.74,-72.832 32.99,-17.226 68.89,-25.839 107.7,-25.839 l 9.33,0 c 15.35,0 33.51,2.5 54.47,7.48 13.29,3.301 26.87,7.77 40.78,13.383 17.22,7.457 31.95,14.508 44.2,21.168 -21.38,-13.5 -46.8,-26.781 -76.25,-39.84 -27.61,-10.59 -42.87,-15.879 -45.77,-15.879 l 0,-0.629 23.97,3.11 z m 11.2,147.539 c -2.07,-11.621 -7.47,-23.442 -16.18,-35.493 -16.6,-20.527 -39.33,-30.796 -68.17,-30.796 -15.14,0 -28.94,3.628 -41.39,10.878 -15.99,11.622 -23.97,23.668 -23.97,36.11 l 0,0.941 c 0,11.207 6.13,21.891 18.36,32.051 11.41,8.098 24.81,12.148 40.15,12.148 6.02,0 10.49,-0.308 13.4,-0.941 l 0,-0.309 c 0,-5.39 0.92,-11.941 2.79,-19.609 5.61,-9.141 11.1,-13.691 16.5,-13.691 l 2.18,0 c 3.12,0 5.39,2.281 6.84,6.851 0,5.801 -2.28,11.211 -6.84,16.188 -5.6,6.41 -11.63,10.472 -18.05,12.133 l -0.93,0 c 0,1.66 0.82,4.668 2.48,9.027 4.98,9.742 11.32,17.953 18.99,24.59 7.26,6.011 14.84,10.152 22.73,12.441 l 0,-0.301 c 4.76,-3.937 9.23,-8.3 13.38,-13.078 12.86,-16.601 19.29,-30.609 19.29,-42.011 l 0,-3.438 0.31,-0.312 c -0.42,-1.231 -1.04,-5.711 -1.87,-13.379 m -56.95,-7.461 c -1.66,0 -3.12,0.308 -4.36,0.929 -9.33,4.77 -14,14.93 -14,30.493 l 0,0.328 0.93,0 7.15,-2.5 c 10.37,-6.848 15.56,-14.43 15.56,-22.731 -1.04,-4.34 -2.79,-6.519 -5.28,-6.519"
         style="fill:#ffffff;fill-opacity:1;fill-rule:nonzero;stroke:none"
         id="path72"
         inkscape:connector-curvature="0" /></g></g></svg>